<svg width="40" height="40" viewBox="0 0 40 40" fill="none" xmlns="http://www.w3.org/2000/svg">
<path d="M31.3189 18.3416H12.7023L20.8356 10.2083C21.4856 9.55827 21.4856 8.4916 20.8356 7.8416C20.5242 7.52951 20.1015 7.35413 19.6606 7.35413C19.2197 7.35413 18.797 7.52951 18.4856 7.8416L7.50227 18.8249C6.85227 19.4749 6.85227 20.5249 7.50227 21.1749L18.4856 32.1583C19.1356 32.8083 20.1856 32.8083 20.8356 32.1583C21.4856 31.5083 21.4856 30.4583 20.8356 29.8083L12.7023 21.6749H31.3189C32.2356 21.6749 32.9856 20.9249 32.9856 20.0083C32.9856 19.0916 32.2356 18.3416 31.3189 18.3416Z" fill="#6D7D8B"/>
</svg>
