<svg width="100" height="30" fill="none" xmlns="http://www.w3.org/2000/svg"><path d="M.096 14.544v-2.712H9.12v2.712H.096zm9.024 6.528v2.784a4.69 4.69 0 01-1.008.264 7.647 7.647 0 01-1.08.072c-1.504 0-2.656-.424-3.456-1.272-.784-.864-1.176-2.056-1.176-3.576V8.976L6.024 7.8v11.472c0 .48.088.864.264 1.152.176.288.408.496.696.624.288.112.6.168.936.168.192 0 .376-.008.552-.024.192-.032.408-.072.648-.12zm12.564 1.632c-.592.464-1.312.832-2.16 1.104a8.842 8.842 0 01-2.568.384c-1.36 0-2.536-.256-3.528-.768a5.4 5.4 0 01-2.256-2.184c-.528-.944-.792-2.064-.792-3.36 0-1.248.256-2.352.768-3.312s1.208-1.704 2.088-2.232c.896-.544 1.936-.816 3.12-.816 1.136 0 2.12.256 2.952.768.832.496 1.472 1.208 1.92 2.136.448.912.672 2 .672 3.264v.528h-8.328l.048-1.8h6.12l-.936.744c.016-1.024-.184-1.792-.6-2.304-.4-.528-.984-.792-1.752-.792-.832 0-1.48.304-1.944.912-.448.592-.672 1.464-.672 2.616 0 1.36.264 2.344.792 2.952.544.608 1.368.912 2.472.912a5.96 5.96 0 001.896-.312 6.315 6.315 0 001.728-.888l.96 2.448zm7.267 1.488c-1.056 0-1.992-.256-2.808-.768-.816-.512-1.448-1.24-1.896-2.184-.448-.944-.672-2.048-.672-3.312 0-1.264.224-2.376.672-3.336.464-.976 1.096-1.728 1.896-2.256.816-.544 1.752-.816 2.808-.816.976 0 1.84.24 2.592.72s1.264 1.128 1.536 1.944l-.288.192v-2.544h3.576V24H32.79v-2.496l.288.048a3.497 3.497 0 01-1.536 1.944c-.752.464-1.616.696-2.592.696zm1.056-2.76c.88 0 1.56-.304 2.04-.912.496-.608.744-1.488.744-2.64 0-1.152-.248-2.032-.744-2.64-.48-.624-1.16-.936-2.04-.936-.88 0-1.576.32-2.088.96-.496.64-.744 1.528-.744 2.664 0 1.136.24 2.008.72 2.616.496.592 1.2.888 2.112.888zM39.292 24v-8.688c0-.576-.016-1.152-.048-1.728a15.836 15.836 0 00-.144-1.752h3.408l.264 2.376-.264-.096c.336-.816.848-1.448 1.536-1.896.704-.464 1.544-.696 2.52-.696 1.104 0 1.976.288 2.616.864.656.56 1.088 1.416 1.296 2.568l-.576-.648a4.475 4.475 0 011.68-2.016c.768-.512 1.64-.768 2.616-.768 1.392 0 2.424.424 3.096 1.272.672.848 1.008 2.128 1.008 3.84V24h-3.624v-7.248c0-.832-.136-1.44-.408-1.824-.272-.384-.72-.576-1.344-.576-.72 0-1.288.264-1.704.792-.416.512-.624 1.232-.624 2.16V24h-3.624v-7.248c0-.832-.136-1.44-.408-1.824-.272-.384-.712-.576-1.32-.576-.736 0-1.312.264-1.728.792-.4.512-.6 1.232-.6 2.16V24h-3.624z" fill="#fff"/><path d="M60.871 20.136h3.936V24h-3.936v-3.864z" fill="#4BD6FF"/><path d="M67.464 24V11.832h3.624V24h-3.624zM67.32 6.12h3.912v3.408H67.32V6.12zM74.05 24v-8.688c0-.576-.016-1.152-.048-1.728a15.836 15.836 0 00-.144-1.752h3.408l.264 2.376-.264-.024c.416-.864.992-1.52 1.728-1.968.752-.464 1.616-.696 2.592-.696 2.864 0 4.296 1.704 4.296 5.112V24h-3.624v-7.2c0-.864-.16-1.488-.48-1.872-.304-.384-.792-.576-1.464-.576-.8 0-1.44.256-1.92.768s-.72 1.2-.72 2.064V24H74.05zm20.455.192c-1.312 0-2.448-.256-3.408-.768a5.322 5.322 0 01-2.208-2.16c-.496-.944-.744-2.056-.744-3.336 0-1.28.272-2.4.816-3.36a5.67 5.67 0 012.28-2.232c.976-.544 2.12-.816 3.432-.816.864 0 1.712.136 2.544.408.832.272 1.504.64 2.016 1.104l-.96 2.52a5.52 5.52 0 00-1.584-.888 4.62 4.62 0 00-1.68-.336c-.976 0-1.744.296-2.304.888-.56.592-.84 1.472-.84 2.64 0 1.184.272 2.072.816 2.664.56.592 1.336.888 2.328.888.544 0 1.104-.104 1.68-.312a5.237 5.237 0 001.584-.912l.96 2.52c-.528.464-1.216.832-2.064 1.104a9.168 9.168 0 01-2.664.384z" fill="#fff"/></svg>